<?xml version="1.0" standalone="no"?>
<!DOCTYPE svg PUBLIC "-//W3C//DTD SVG 20010904//EN"
 "http://www.w3.org/TR/2001/REC-SVG-20010904/DTD/svg10.dtd">
<svg version="1.0" xmlns="http://www.w3.org/2000/svg"
 width="354.000000pt" height="354.000000pt" viewBox="0 0 354.000000 354.000000"
 preserveAspectRatio="xMidYMid meet">
<metadata>
Created by potrace 1.11, written by Peter Selinger 2001-2013
</metadata>
<g transform="translate(0.000000,354.000000) scale(0.100000,-0.100000)"
fill="#000000" stroke="none">
<path d="M1050 1770 l0 -1170 255 0 255 0 0 465 0 465 78 0 77 0 156 -463 156
-462 278 -3 c261 -2 277 -1 273 15 -3 10 -92 245 -198 522 -127 332 -189 506
-182 509 37 12 139 92 174 136 54 67 106 180 124 269 18 86 20 278 4 366 -52
286 -225 453 -528 507 -57 10 -186 13 -499 14 l-423 0 0 -1170z m795 706 c92
-40 136 -112 143 -235 9 -155 -29 -241 -129 -296 -50 -28 -63 -30 -176 -33
l-123 -4 0 297 0 297 123 -4 c85 -3 134 -10 162 -22z"/>
</g>
</svg>
