<?xml version="1.0" encoding="UTF-8" standalone="no"?>
<svg width="98px" height="70px" viewBox="0 0 98 70" version="1.1" xmlns="http://www.w3.org/2000/svg" xmlns:xlink="http://www.w3.org/1999/xlink">
    <!-- Generator: Sketch 3.8.3 (29802) - http://www.bohemiancoding.com/sketch -->
    <title>Combined Shape</title>
    <desc>Created with Sketch.</desc>
    <defs>
        <path d="M6.41840862,39.1123102 L0.414449941,70 L98,70 L98,0 L14.0210716,0 L7.88705985,31.5567547 L35.7777778,31.5567547 L35.7777778,24.9456436 C35.7777778,24.5326002 35.9647778,24.247378 36.3387778,24.0899769 C36.7127778,23.9325758 37.0571978,23.9816869 37.372,24.2373102 L48.7053333,34.5676436 C48.9017778,34.764088 49,34.9901314 49,35.2457547 C49,35.5215325 48.9017778,35.7576436 48.7053333,35.954088 L37.372,46.4015344 C37.0571978,46.6773121 36.7127778,46.7364986 36.3387778,46.5790899 C35.9647778,46.4015344 35.7777778,46.1163102 35.7777778,45.7234251 L35.7777778,39.1123102 L6.41840862,39.1123102 Z" id="path-1"></path>
    </defs>
    <g id="RECODESIGN" stroke="none" stroke-width="1" fill="none" fill-rule="evenodd">
        <g id="ipad" transform="translate(-655.000000, -1947.000000)">
            <g id="button" transform="translate(655.000000, 1947.000000)">
                <mask id="mask-2" fill="white">
                    <use xlink:href="#path-1"></use>
                </mask>
                <g id="Combined-Shape">
                    <use fill="#3BCFF7" xlink:href="#path-1"></use>
                    <use fill="#FD4F77" xlink:href="#path-1"></use>
                    <use fill="#1B1B1B" xlink:href="#path-1"></use>
                </g>
            </g>
        </g>
    </g>
</svg>