<?xml version="1.0" encoding="UTF-8" standalone="no"?>
<svg width="41px" height="90px" viewBox="0 0 41 90" version="1.1" xmlns="http://www.w3.org/2000/svg" xmlns:xlink="http://www.w3.org/1999/xlink">
    <!-- Generator: Sketch 3.8.3 (29802) - http://www.bohemiancoding.com/sketch -->
    <title>work-previous</title>
    <desc>Created with Sketch.</desc>
    <defs>
        <path d="M0,48.1123102 L0,90 L41,90 L41,0 L0,0 L0,40.5567547 L17.7777778,40.5567547 L17.7777778,33.9456436 C17.7777778,33.5326002 17.9647778,33.247378 18.3387778,33.0899769 C18.7127778,32.9325758 19.0571978,32.9816869 19.372,33.2373102 L30.7053333,43.5676436 C30.9017778,43.764088 31,43.9901314 31,44.2457547 C31,44.5215325 30.9017778,44.7576436 30.7053333,44.954088 L19.372,55.4015344 C19.0571978,55.6773121 18.7127778,55.7364986 18.3387778,55.5790899 C17.9647778,55.4015344 17.7777778,55.1163102 17.7777778,54.7234251 L17.7777778,48.1123102 L-2.22044605e-15,48.1123102 Z" id="path-1"></path>
    </defs>
    <g id="RECODESIGN" stroke="none" stroke-width="1" fill="none" fill-rule="evenodd">
        <g id="ipad" transform="translate(-647.000000, -1837.000000)">
            <g id="work-previous" transform="translate(667.500000, 1882.000000) rotate(-180.000000) translate(-667.500000, -1882.000000) translate(647.000000, 1837.000000)">
                <g id="Combined-Shape">
                    <use fill="#3BCFF7" xlink:href="#path-1"></use>
                    <use fill="#FD4F77" xlink:href="#path-1"></use>
                    <use fill="#1B1B1B" xlink:href="#path-1"></use>
                </g>
            </g>
        </g>
    </g>
</svg>