<?xml version="1.0" encoding="UTF-8" standalone="no"?>
<svg width="41px" height="90px" viewBox="0 0 41 90" version="1.1" xmlns="http://www.w3.org/2000/svg" xmlns:xlink="http://www.w3.org/1999/xlink">
    <!-- Generator: Sketch 3.8.3 (29802) - http://www.bohemiancoding.com/sketch -->
    <title>work-next</title>
    <desc>Created with Sketch.</desc>
    <defs>
        <path d="M3.55271368e-15,49.1123102 L3.55271368e-15,90 L41,90 L41,0 L3.55271368e-15,0 L3.55271368e-15,41.5567547 L17.7777778,41.5567547 L17.7777778,34.9456436 C17.7777778,34.5326002 17.9647778,34.247378 18.3387778,34.0899769 C18.7127778,33.9325758 19.0571978,33.9816869 19.372,34.2373102 L30.7053333,44.5676436 C30.9017778,44.764088 31,44.9901314 31,45.2457547 C31,45.5215325 30.9017778,45.7576436 30.7053333,45.954088 L19.372,56.4015344 C19.0571978,56.6773121 18.7127778,56.7364986 18.3387778,56.5790899 C17.9647778,56.4015344 17.7777778,56.1163102 17.7777778,55.7234251 L17.7777778,49.1123102 L8.8817842e-16,49.1123102 Z" id="path-1"></path>
    </defs>
    <g id="RECODESIGN" stroke="none" stroke-width="1" fill="none" fill-rule="evenodd">
        <g id="ipad" transform="translate(-707.000000, -1837.000000)">
            <g id="work-next" transform="translate(707.000000, 1837.000000)">
                <g id="Combined-Shape">
                    <use fill="#3BCFF7" xlink:href="#path-1"></use>
                    <use fill="#FD4F77" xlink:href="#path-1"></use>
                    <use fill="#1B1B1B" xlink:href="#path-1"></use>
                </g>
            </g>
        </g>
    </g>
</svg>