<?xml version="1.0" encoding="UTF-8" standalone="no"?>
<svg width="515px" height="198px" viewBox="0 0 515 198" version="1.1" xmlns="http://www.w3.org/2000/svg" xmlns:xlink="http://www.w3.org/1999/xlink">
    <!-- Generator: Sketch 39 (31667) - http://www.bohemiancoding.com/sketch -->
    <title>header</title>
    <desc>Created with Sketch.</desc>
    <defs></defs>
    <g id="RECODESIGN" stroke="none" stroke-width="1" fill="none" fill-rule="evenodd">
        <g id="header" fill="#F6D056">
            <g id="Group">
                <path d="M179.044377,136.010286 L167.119257,197.997009 L515,197.997009 L515,0 L205.210287,0 L193.318858,61.8115949 L198.671509,61.8115949 C203.876414,61.8115949 208.379275,62.6849229 212.180225,64.4316052 C215.981176,66.1782874 219.114345,68.6760056 221.579826,71.9248346 C224.045308,75.1736636 225.87727,79.0861731 227.075768,83.6624806 C228.274266,88.2387881 228.873506,93.3914235 228.873506,99.1205413 C228.873506,104.709924 228.274266,109.775227 227.075768,114.316601 C225.87727,118.857975 224.045308,122.735551 221.579826,125.949447 C219.114345,129.163342 215.981176,131.643593 212.180225,133.390276 C208.379275,135.136958 203.876414,136.010286 198.671509,136.010286 L179.044377,136.010286 Z M424.5035,136.010286 L398.750424,74.2828438 L398.437633,74.2828438 L398.437633,136.010286 L391.660508,136.010286 L391.660508,61.8115949 L400.731429,61.8115949 L426.275979,123.539037 L426.588769,123.539037 L426.588769,61.8115949 L433.261631,61.8115949 L433.261631,136.010286 L424.5035,136.010286 Z M382.616786,131.809666 C380.613775,133.637382 378.179117,135.096018 375.312739,136.185618 C372.446361,137.275218 369.079281,137.82001 365.211397,137.82001 C361.136306,137.82001 357.475685,136.906166 354.229426,135.07845 C350.983167,133.250734 348.254969,130.649792 346.04475,127.275547 C343.83453,123.901302 342.142357,119.82415 340.968178,115.043969 C339.793999,110.263789 339.206918,104.921314 339.206918,99.0163851 C339.206918,93.46294 339.776732,88.2962046 340.916376,83.516024 C342.05602,78.7358434 343.696393,74.6059699 345.837542,71.1262796 C347.978692,67.6465893 350.603288,64.9226301 353.711409,62.9543205 C356.819529,60.9860108 360.342013,60.0018707 364.278966,60.0018707 C367.870572,60.0018707 371.151317,60.7399758 374.121298,62.216208 C377.09128,63.6924403 379.57774,66.012199 381.580751,69.1755538 L376.918593,74.026007 C375.329998,71.5656199 373.482421,69.7203573 371.375806,68.4901637 C369.269191,67.2599702 367.007203,66.6448826 364.589776,66.6448826 C361.550725,66.6448826 358.926129,67.5060052 356.71591,69.2282762 C354.505691,70.9505471 352.658114,73.2878798 351.173123,76.2403443 C349.688132,79.1928088 348.583039,82.6197251 347.857811,86.521196 C347.132583,90.422667 346.769974,94.5876883 346.769974,99.0163851 C346.769974,103.655972 347.14985,107.944011 347.909613,111.88063 C348.669375,115.81725 349.82627,119.209018 351.38033,122.056037 C352.93439,124.903057 354.868303,127.134946 357.182126,128.751772 C359.495949,130.368597 362.172346,131.176998 365.211397,131.176998 C367.421616,131.176998 369.40733,130.895815 371.168599,130.333441 C372.929867,129.771067 374.397569,128.962666 375.571748,127.908215 L375.571748,102.601503 L365.107794,102.601503 L365.107794,96.16938 L382.616786,96.16938 L382.616786,131.809666 Z M324.736963,136.010286 L324.736963,61.8115949 L331.971941,61.8115949 L331.971941,136.010286 L324.736963,136.010286 Z M315.69324,117.054523 C315.69324,120.34066 315.215012,123.259685 314.258542,125.811685 C313.302072,128.363686 311.986945,130.531105 310.313122,132.31401 C308.639299,134.096914 306.675149,135.460291 304.420612,136.404181 C302.166075,137.348072 299.774935,137.82001 297.247121,137.82001 C293.557879,137.82001 290.159045,137.015967 287.050516,135.407858 C283.941988,133.799748 281.431291,131.667286 279.518351,129.010409 L283.924924,123.871476 C285.496268,126.178764 287.477498,127.961641 289.868673,129.220162 C292.259849,130.478683 294.685148,131.107933 297.144643,131.107933 C300.423969,131.107933 303.17378,129.919348 305.394157,127.542143 C307.614534,125.164937 308.724706,121.773974 308.724706,117.369151 C308.724706,115.271617 308.383115,113.418823 307.699922,111.810713 C307.016729,110.202603 306.094432,108.769309 304.933004,107.510789 C303.771576,106.252268 302.456449,105.1336 300.987584,104.15475 C299.518719,103.175901 297.964478,102.266983 296.324815,101.427969 C294.343555,100.44912 292.464803,99.3479307 290.688501,98.124369 C288.912199,96.9008072 287.357958,95.4849927 286.025732,93.8768829 C284.693506,92.2687732 283.617493,90.3635413 282.797661,88.1611301 C281.977829,85.9587189 281.56792,83.3892777 281.56792,80.4527295 C281.56792,77.0267565 282.080307,74.0378148 283.105096,71.4858145 C284.129886,68.9338142 285.513331,66.8013528 287.255473,65.0883664 C288.997615,63.3753799 290.961766,62.0993989 293.147983,61.2603851 C295.334201,60.4213713 297.622863,60.0018707 300.014039,60.0018707 C303.293365,60.0018707 306.248131,60.5786841 308.878424,61.732328 C311.508717,62.885972 313.711982,64.6863287 315.488283,67.1334522 L311.08171,72.272386 C309.715324,70.2447693 308.109845,68.7939964 306.265224,67.9200237 C304.420603,67.046051 302.405213,66.6090713 300.218996,66.6090713 C298.784291,66.6090713 297.366686,66.8712591 295.966141,67.3956427 C294.565595,67.9200264 293.318786,68.7415484 292.225678,69.8602334 C291.132569,70.9789185 290.244431,72.4122122 289.561238,74.1601576 C288.878045,75.9081029 288.536454,77.9706476 288.536454,80.3478533 C288.536454,82.4453877 288.843886,84.2632237 289.45876,85.8014156 C290.073633,87.3396076 290.910532,88.7029845 291.969481,89.8915874 C293.028431,91.0801902 294.25816,92.1289417 295.658705,93.0378733 C297.059251,93.9468049 298.511014,94.7858061 300.014039,95.5549021 C301.926979,96.5337515 303.822812,97.6524198 305.701592,98.9109405 C307.580373,100.169461 309.271251,101.637713 310.774275,103.315741 C312.2773,104.993768 313.47287,106.951438 314.361021,109.188808 C315.249171,111.426178 315.69324,114.048057 315.69324,117.054523 Z M236.108484,136.010286 L236.108484,61.8115949 L271.057106,61.8115949 L271.057106,76.5884529 L251.743394,76.5884529 L251.743394,91.15571 L269.524271,91.15571 L269.524271,104.989364 L251.743394,104.989364 L251.743394,121.023827 L272.283373,121.023827 L272.283373,136.010286 L236.108484,136.010286 Z M0,0 L514.970644,0 L514.970644,198 L0,198 L0,0 Z M213.987801,99.7102804 C213.987801,92.2102429 212.699652,86.5502527 210.123316,82.7301402 C207.546979,78.9100276 204.211909,77 200.118004,77 L195.988827,77 L195.988827,122 L200.118004,122 C204.211909,122 207.546979,120.089972 210.123316,116.26986 C212.699652,112.449747 213.987801,106.929943 213.987801,99.7102804 Z M44.4095194,136.013405 L44.4095194,61.9865952 L74.2661256,61.9865952 L74.2661256,68.4691689 L51.5332008,68.4691689 L51.5332008,94.5040214 L72.7994853,94.5040214 L72.7994853,100.672922 L51.5332008,100.672922 L51.5332008,129.426273 L75.3137259,129.426273 L75.3137259,136.013405 L44.4095194,136.013405 Z M127.161207,127.962466 C125.135836,130.82039 122.481942,133.207765 119.199445,135.124665 C115.916948,137.041565 111.726589,138 106.628242,138 C102.29814,138 98.3696783,137.041565 94.84274,135.124665 C91.3158016,133.207765 88.2952512,130.524146 85.7809981,127.073727 C83.266745,123.623307 81.3112441,119.510748 79.9144368,114.735925 C78.5176295,109.961102 77.8192364,104.715846 77.8192364,99 C77.8192364,93.2144483 78.5176295,87.9169141 79.9144368,83.1072386 C81.3112441,78.2975631 83.266745,74.1850037 85.7809981,70.769437 C88.2952512,67.3538703 91.3158016,64.7051032 94.84274,62.8230563 C98.3696783,60.9410094 102.29814,60 106.628242,60 C111.586908,60 115.724888,60.8887311 119.042305,62.6662198 C122.359722,64.4437086 125.031076,66.6568232 127.056447,69.30563 L118.047085,81.4343164 C116.789958,79.7613857 115.375712,78.4370022 113.804304,77.461126 C112.232896,76.4852498 110.259935,75.997319 107.885363,75.997319 C105.650471,75.997319 103.71243,76.5898064 102.071181,77.7747989 C100.429933,78.9597914 99.0331466,80.5804187 97.8807806,82.6367292 C96.7284146,84.6930398 95.872883,87.1326937 95.3141601,89.9557641 C94.7554372,92.7788345 94.4760799,95.7935497 94.4760799,99 C94.4760799,102.20645 94.7554372,105.203739 95.3141601,107.991957 C95.872883,110.780175 96.7284146,113.219829 97.8807806,115.310992 C99.0331466,117.402155 100.447393,119.040209 102.123562,120.225201 C103.79973,121.410194 105.755231,122.002681 107.990123,122.002681 C110.225014,122.002681 112.180515,121.445046 113.856684,120.329759 C115.532853,119.214472 116.8598,117.890088 117.837565,116.356568 L127.161207,127.962466 Z M182.989569,98.7908847 C182.989569,104.646142 182.326095,109.995954 180.999128,114.840483 C179.672161,119.685011 177.7865,123.814996 175.342087,127.230563 C172.897674,130.64613 169.912043,133.294897 166.385105,135.176944 C162.858167,137.058991 158.894785,138 154.494843,138 C150.0949,138 146.131518,137.058991 142.60458,135.176944 C139.077642,133.294897 136.092011,130.64613 133.647598,127.230563 C131.203185,123.814996 129.317524,119.685011 127.990557,114.840483 C126.66359,109.995954 126.000117,104.646142 126.000117,98.7908847 C126.000117,92.9356276 126.64613,87.6206673 127.938177,82.8458445 C129.230224,78.0710217 131.098425,73.9933145 133.542838,70.6126005 C135.987251,67.2318866 138.972882,64.6179717 142.49982,62.7707775 C146.026758,60.9235833 150.025059,60 154.494843,60 C158.894785,60 162.858167,60.9235833 166.385105,62.7707775 C169.912043,64.6179717 172.897674,67.2318866 175.342087,70.6126005 C177.7865,73.9933145 179.672161,78.0710217 180.999128,82.8458445 C182.326095,87.6206673 182.989569,92.9356276 182.989569,98.7908847 Z M30.1708864,136.013405 L16.7616035,101.718499 L7.22844152,101.718499 L7.22844152,136.013405 L0,136.013405 L0,61.9865952 L17.8092037,61.9865952 C20.2536165,61.9865952 22.6106934,62.3176911 24.8805052,62.9798928 C27.1503171,63.6420945 29.1756572,64.7399387 30.9565865,66.2734584 C32.7375158,67.8069782 34.1692218,69.8284057 35.2517474,72.3378016 C36.3342731,74.8471975 36.8755278,77.914191 36.8755278,81.538874 C36.8755278,84.6756189 36.4739517,87.3766643 35.6707875,89.6420912 C34.8676233,91.907518 33.8200336,93.8069628 32.5279868,95.3404826 C31.2359401,96.8740023 29.8042341,98.0589771 28.2328259,98.8954424 C26.6614178,99.7319077 25.107493,100.254691 23.571005,100.463807 L38.027888,136.013405 L30.1708864,136.013405 Z" id="Combined-Shape"></path>
                <path d="M29.7535423,81.8525469 C29.7535423,79.2037401 29.386865,76.9906255 28.6534994,75.2131367 C27.9201337,73.4356479 26.9423276,72.0241339 25.7200515,70.9785523 C24.4977755,69.9329706 23.1009095,69.2010745 21.5294118,68.7828418 C19.957914,68.3646092 18.3340573,68.155496 16.657793,68.155496 L7.22885359,68.155496 L7.22885359,95.9678284 L16.972091,95.9678284 C20.9532187,95.9678284 24.0787063,94.7305754 26.3486475,92.2560322 C28.6185887,89.781489 29.7535423,86.3136952 29.7535423,81.8525469 L29.7535423,81.8525469 Z" id="Path"></path>
                <path d="M165.818377,98.7908847 C165.818377,95.5844344 165.573925,92.6045714 165.085015,89.8512064 C164.596105,87.0978415 163.880211,84.7104659 162.937312,82.689008 C161.994413,80.6675502 160.824538,79.0817752 159.427651,77.9316354 C158.030764,76.7814956 156.389447,76.2064343 154.50365,76.2064343 C152.617852,76.2064343 150.959074,76.7814956 149.527265,77.9316354 C148.095456,79.0817752 146.90812,80.6675502 145.965221,82.689008 C145.022322,84.7104659 144.323889,87.0978415 143.869901,89.8512064 C143.415913,92.6045714 143.188922,95.5844344 143.188922,98.7908847 C143.188922,101.997335 143.415913,104.994624 143.869901,107.782842 C144.323889,110.57106 145.022322,112.975861 145.965221,114.997319 C146.90812,117.018777 148.095456,118.621978 149.527265,119.806971 C150.959074,120.991963 152.617852,121.58445 154.50365,121.58445 C156.389447,121.58445 158.030764,120.991963 159.427651,119.806971 C160.824538,118.621978 161.994413,117.018777 162.937312,114.997319 C163.880211,112.975861 164.596105,110.57106 165.085015,107.782842 C165.573925,104.994624 165.818377,101.997335 165.818377,98.7908847 L165.818377,98.7908847 Z" id="Path"></path>
            </g>
        </g>
    </g>
</svg>